<?xml version="1.0" encoding="UTF-8"?>
<!DOCTYPE svg PUBLIC "-//W3C//DTD SVG 1.1//EN" "http://www.w3.org/Graphics/SVG/1.1/DTD/svg11.dtd">
<!-- Creator: CorelDRAW X6 -->
<svg xmlns="http://www.w3.org/2000/svg" xml:space="preserve" width="210mm" height="297mm" version="1.1" style="shape-rendering:geometricPrecision; text-rendering:geometricPrecision; image-rendering:optimizeQuality; fill-rule:evenodd; clip-rule:evenodd"
viewBox="0 0 21000 29700"
 xmlns:xlink="http://www.w3.org/1999/xlink">
 <defs>
  <style type="text/css">
   <![CDATA[
    .fil1 {fill:gray}
    .fil0 {fill:gray;fill-rule:nonzero}
   ]]>
  </style>
 </defs>
 <g id="Слой_x0020_1">
  <metadata id="CorelCorpID_0Corel-Layer"/>
  <path class="fil0" d="M9454 15403c41,-193 86,-398 138,-619 50,-219 103,-439 153,-660 15,-67 30,-153 47,-260 15,-105 21,-215 19,-327 -2,-114 -20,-213 -58,-301 -36,-88 -99,-148 -187,-178 -69,-17 -142,-17 -217,-4 -77,15 -146,43 -209,82 2,-153 36,-288 99,-407 65,-118 151,-215 260,-288 131,-90 275,-155 432,-195 157,-41 312,-58 465,-52 170,4 329,30 475,82 146,52 266,133 363,243 97,109 159,250 183,426 19,168 17,338 -2,510 -21,174 -52,346 -93,518 -41,172 -88,342 -135,510 -48,168 -92,331 -129,492 -32,151 -65,312 -101,481 -36,170 -67,338 -93,509 -26,168 -39,329 -41,480 -2,187 20,353 67,499 49,146 139,256 269,331 54,34 125,50 217,54 92,4 183,-4 277,-21 -24,232 -95,423 -211,570 -116,149 -262,258 -441,329 -179,69 -378,103 -593,99 -211,-4 -398,-47 -565,-127 -166,-78 -303,-191 -411,-336 -107,-146 -178,-322 -213,-523 -24,-166 -26,-357 -6,-570 21,-213 52,-434 97,-666 47,-232 94,-460 144,-682zm1360 -4131c232,10 428,-34 589,-116 161,-82 284,-191 370,-325 85,-133 134,-273 140,-423 9,-215 -30,-389 -116,-520 -86,-131 -200,-224 -344,-284 -142,-59 -295,-92 -460,-93 -217,-2 -402,35 -551,109 -151,74 -269,174 -352,295 -82,121 -128,253 -140,393 -8,97 -3,198 17,303 21,106 63,207 125,301 63,95 152,175 269,239 118,65 269,113 453,122z"/>
  <g id="_321958664">
   <rect class="fil1" x="3240" y="4595" width="14574" height="1041"/>
   <rect class="fil1" x="3240" y="22292" width="14574" height="1041"/>
   <rect class="fil1" transform="matrix(7.81533E-013 -37.9401 29.509 1.00483E-012 16772.9 23333.6)" width="493.89" height="35.28"/>
   <rect class="fil1" transform="matrix(7.81533E-013 -37.9401 29.509 1.00483E-012 3239.74 23333.6)" width="493.89" height="35.28"/>
  </g>
 </g>
</svg>
