<?xml version="1.0" encoding="UTF-8"?>
<!DOCTYPE svg PUBLIC "-//W3C//DTD SVG 1.1//EN" "http://www.w3.org/Graphics/SVG/1.1/DTD/svg11.dtd">
<!-- Creator: CorelDRAW X6 -->
<svg xmlns="http://www.w3.org/2000/svg" xml:space="preserve" width="210mm" height="297mm" version="1.1" style="shape-rendering:geometricPrecision; text-rendering:geometricPrecision; image-rendering:optimizeQuality; fill-rule:evenodd; clip-rule:evenodd"
viewBox="0 0 21000 29700"
 xmlns:xlink="http://www.w3.org/1999/xlink">
 <defs>
  <style type="text/css">
   <![CDATA[
    .fil0 {fill:#87B94B}
   ]]>
  </style>
 </defs>
 <g id="Слой_x0020_1">
  <metadata id="CorelCorpID_0Corel-Layer"/>
  <path class="fil0" d="M10619 1187c5026,0 9101,4074 9101,9101 20,2076 -431,4011 -1165,5884 -982,2503 -5603,11128 -7588,11187 -1754,53 -7396,-8929 -8248,-11113 -742,-1904 -1201,-3866 -1201,-5958 0,-5026 4074,-9101 9101,-9101zm0 4695c2433,0 4405,1972 4405,4405 0,2433 -1972,4405 -4405,4405 -2433,0 -4405,-1972 -4405,-4405 0,-2433 1972,-4405 4405,-4405z"/>
 </g>
</svg>
