<?xml version="1.0" encoding="UTF-8"?>
<!DOCTYPE svg PUBLIC "-//W3C//DTD SVG 1.1//EN" "http://www.w3.org/Graphics/SVG/1.1/DTD/svg11.dtd">
<!-- Creator: CorelDRAW X6 -->
<svg xmlns="http://www.w3.org/2000/svg" xml:space="preserve" width="210mm" height="297mm" version="1.1" style="shape-rendering:geometricPrecision; text-rendering:geometricPrecision; image-rendering:optimizeQuality; fill-rule:evenodd; clip-rule:evenodd"
viewBox="0 0 21000 29700"
 xmlns:xlink="http://www.w3.org/1999/xlink">
 <defs>
  <style type="text/css">
   <![CDATA[
    .fil0 {fill:#87B94B}
   ]]>
  </style>
 </defs>
 <g id="Слой_x0020_1">
  <metadata id="CorelCorpID_0Corel-Layer"/>
  <path class="fil0" d="M7008 3312l5677 0c1665,0 3028,1362 3028,3028l0 12489c0,1665 -1362,3028 -3028,3028l-5677 0c-1665,0 -3028,-1362 -3028,-3028l0 -12489c0,-1666 1362,-3028 3028,-3028zm-1429 3122l8535 0 0 12059 -8535 0 0 -12059zm3016 12768l2503 0 0 1703 -2503 0 0 -1703zm-272 -14145l3047 0 0 851 -3047 0 0 -851z"/>
 </g>
</svg>
