<?xml version="1.0" encoding="UTF-8"?>
<!DOCTYPE svg PUBLIC "-//W3C//DTD SVG 1.1//EN" "http://www.w3.org/Graphics/SVG/1.1/DTD/svg11.dtd">
<!-- Creator: CorelDRAW X6 -->
<svg xmlns="http://www.w3.org/2000/svg" xml:space="preserve" width="210mm" height="297mm" version="1.1" style="shape-rendering:geometricPrecision; text-rendering:geometricPrecision; image-rendering:optimizeQuality; fill-rule:evenodd; clip-rule:evenodd"
viewBox="0 0 21000 29700"
 xmlns:xlink="http://www.w3.org/1999/xlink">
 <defs>
  <style type="text/css">
   <![CDATA[
    .fil0 {fill:#666666}
   ]]>
  </style>
 </defs>
 <g id="Слой_x0020_1">
  <metadata id="CorelCorpID_0Corel-Layer"/>
  <path class="fil0" d="M10891 24613c97,-217 320,-500 642,-715 259,-173 787,-427 1056,-559 51,-26 85,4 50,33 -258,363 -369,1259 -699,1907 -158,311 -450,471 -708,493 115,698 108,1161 181,1482 -296,-12 -413,-65 -531,-179 -50,-563 -45,-846 -111,-1495 -20,-35 -35,-75 -42,-119 -53,-319 69,-641 163,-848zm3594 289c-49,-181 -187,-429 -412,-637 -180,-167 -560,-430 -753,-566 -37,-26 -66,-8 -43,20 156,315 132,1027 308,1573 85,262 292,423 491,472 -176,529 -228,891 -325,1132 232,28 330,1 436,-73 109,-433 141,-654 272,-1151 20,-25 36,-54 48,-88 81,-242 25,-508 -22,-681zm1246 -10354l-14 -277c-102,-2030 -291,-5771 -691,-7299l-51 13c395,1512 519,5256 621,7280l8 191c-97,-69 -188,-133 -255,-181 -36,-26 -65,-7 -42,19 153,309 130,1009 303,1546 163,504 791,629 905,286 79,-237 25,-499 -21,-669 -48,-178 -184,-421 -404,-625 -87,-81 -222,-184 -358,-284zm1809 -208l77 -175c-288,156 -639,58 -641,-197 -1,-226 118,-434 206,-567 82,-126 241,-277 452,-389l78 -203c-193,92 -405,61 -471,-113 -80,-211 -40,-448 -4,-603 37,-161 150,-386 341,-577 12,-12 25,-25 40,-38 285,-1332 756,-3482 1145,-4364l31 14c-376,853 -801,2931 -1081,4265 165,-141 385,-307 511,-404 32,-25 59,-9 39,16 -68,152 -86,401 -109,676 611,-1538 1332,-3247 1851,-4053l39 25c-553,859 -1310,2773 -1928,4392 -17,124 -39,247 -71,361 -34,123 -100,223 -179,297l-92 244c129,-52 304,-110 461,-159 802,-1764 1779,-3807 2444,-4734l43 30c-649,904 -1574,2911 -2351,4661l120 -37c38,-12 58,12 31,28 -217,222 -393,827 -691,1238l-3 4 -135 306c157,-52 317,-100 423,-132 38,-12 58,12 31,28 -217,222 -393,827 -691,1238 -281,386 -853,317 -855,-8 -1,-225 118,-434 206,-567 91,-139 275,-310 521,-422 58,-26 131,-55 212,-84zm-651 4628c163,-342 352,-752 561,-1206l148 -322c-178,320 -355,803 -613,1158 -317,437 -964,358 -967,-9 -1,-255 134,-491 232,-641 100,-152 299,-338 565,-466 42,-83 86,-173 133,-270 -301,107 -623,-8 -624,-268 -1,-255 134,-490 233,-640 103,-157 311,-350 589,-477 132,-61 342,-132 538,-195 846,-1837 1981,-4259 3068,-5676l36 28c-1058,1378 -2117,3774 -2948,5599l197 -61c43,-14 65,14 35,32 -246,251 -444,935 -781,1400 -49,68 -106,123 -168,167 -50,104 -98,201 -143,292 232,-89 556,-186 742,-243 855,-1852 1964,-4172 3028,-5559l37 29c-1169,1524 -2369,4303 -3250,6218 -184,399 -343,754 -485,1058 106,-33 204,-63 279,-86 43,-14 66,14 35,32 -246,251 -444,935 -781,1400 -318,437 -965,358 -966,-10 -2,-255 134,-491 232,-641 103,-157 311,-349 589,-477 113,-52 280,-111 448,-166zm-790 -5815l-5 -98c-91,-1801 -258,-5120 -613,-6476l-45 12c350,1342 456,4646 546,6442l2 38c-82,-59 -158,-111 -215,-152 -32,-24 -59,-6 -38,18 139,280 117,914 274,1400 148,457 717,570 820,260 71,-215 22,-452 -20,-606 -44,-161 -167,-382 -366,-567 -83,-76 -212,-175 -341,-270zm-1059 4659c-52,-401 -108,-882 -170,-1414 -252,-2187 -604,-5232 -1263,-7176 127,-404 257,-803 391,-1193 602,1764 856,4592 1088,6599 65,563 127,1065 184,1466 -89,-63 -171,-121 -234,-165 -37,-26 -66,-7 -43,20 156,315 131,1027 308,1573 166,514 805,640 922,291 81,-242 25,-508 -22,-681 -49,-181 -187,-429 -411,-636 -94,-87 -241,-199 -388,-307 -59,-413 -122,-954 -193,-1569 -235,-2036 -563,-4882 -1186,-6661 375,-1084 779,-2087 1211,-2884l-56 -30c-1240,2290 -2311,6115 -3076,8848 -183,654 -348,1244 -494,1735 -206,106 -415,218 -550,308 -323,215 -545,498 -642,715 -94,208 -216,530 -163,848 76,460 901,429 1212,-181 330,-649 441,-1545 699,-1908 35,-29 1,-59 -50,-33 -81,39 -185,90 -298,146 125,-438 263,-948 424,-1525 386,-1379 834,-3070 1341,-4696 635,1933 920,5005 1168,7160 54,470 99,884 142,1241 -81,-57 -156,-110 -214,-151 -37,-26 -66,-7 -43,20 156,315 132,1027 308,1573 166,514 805,640 922,291 80,-242 25,-508 -22,-681 -49,-181 -187,-429 -411,-637 -94,-87 -243,-201 -390,-308zm1980 -5258l15 -239c104,-1645 297,-4676 166,-5930l-34 8c129,1241 -94,4263 -198,5902l-10 155c-49,-75 -111,-153 -184,-225l-3 -60c-67,-1321 -190,-3757 -449,-4751l-33 9c257,983 340,3411 406,4730 -164,-139 -436,-329 -582,-431 -31,-22 -56,-6 -36,16 131,265 111,863 259,1322 140,432 677,538 775,245 67,-203 21,-427 -19,-573 -14,-54 -39,-115 -72,-179zm-1570 7756c-49,-181 -187,-429 -411,-637 -181,-167 -560,-431 -753,-567 -37,-26 -66,-7 -43,20 156,314 132,1027 308,1573 166,514 806,640 922,291 81,-242 25,-508 -22,-681zm50 882c103,-157 311,-350 589,-477 224,-103 666,-235 892,-304 43,-14 65,14 35,32 -246,251 -444,935 -781,1400 -318,437 -965,358 -967,-10 -1,-255 134,-490 233,-641zm-367 761c-49,-181 -187,-429 -412,-637 -180,-167 -560,-431 -753,-567 -37,-26 -66,-8 -43,20 156,315 132,1027 308,1573 166,514 805,640 922,292 80,-242 25,-508 -22,-682zm12 842c103,-157 311,-350 589,-477 223,-103 666,-235 892,-305 43,-14 65,14 35,32 -246,251 -444,935 -781,1400 -317,437 -964,358 -967,-9 -1,-255 134,-491 233,-641zm-327 645c-49,-181 -187,-429 -411,-637 -180,-167 -560,-431 -753,-566 -37,-26 -66,-7 -43,20 155,315 131,1027 308,1573 166,514 806,640 922,291 81,-242 25,-508 -22,-681zm-22 915c103,-157 311,-349 589,-478 224,-103 666,-235 892,-304 43,-14 65,13 35,32 -246,251 -444,936 -781,1400 -318,437 -965,358 -967,-9 -1,-255 134,-491 233,-641zm-6773 613c30,-185 142,-446 344,-676 163,-185 513,-486 691,-641 34,-30 65,-14 45,15 -123,329 -25,1035 -145,1597 -57,269 -247,450 -440,519 230,509 318,863 439,1093 -228,51 -328,34 -442,-28 -153,-420 -207,-636 -389,-1118 -23,-23 -42,-50 -56,-82 -105,-232 -77,-503 -48,-680zm-2303 -10172l-14 -277c-107,-2030 -303,-5770 -63,-7331l52 8c-238,1545 24,5282 130,7305l11 192c89,-79 173,-152 235,-206 33,-30 64,-14 44,15 -120,323 -25,1017 -142,1568 -110,519 -722,707 -871,378 -103,-228 -76,-494 -47,-668 30,-182 139,-438 338,-664 78,-89 201,-206 327,-320zm-1821 -21l-95 -165c302,125 642,-8 618,-262 -22,-224 -163,-419 -263,-543 -95,-116 -268,-251 -490,-340l-99 -194c202,72 410,20 457,-160 58,-218 -6,-450 -57,-600 -54,-157 -189,-368 -399,-539 -14,-11 -28,-23 -44,-34 -420,-1296 -1109,-3386 -1587,-4223l-30 17c461,810 1097,2833 1513,4132 -179,-124 -414,-266 -550,-349 -34,-21 -59,-3 -37,20 83,143 127,390 178,661 -765,-1467 -1659,-3092 -2258,-3842l-36 29c638,798 1588,2624 2369,4171 29,122 64,241 108,352 47,119 122,211 209,277l117 233c-134,-39 -314,-78 -475,-111 -979,-1672 -2161,-3604 -2918,-4458l-39 35c738,832 1865,2733 2817,4395l-123 -24c-39,-8 -56,18 -28,31 239,198 476,782 815,1161l4 4 165 290c-161,-35 -326,-67 -435,-88 -39,-8 -56,18 -28,31 239,199 476,782 815,1161 319,356 881,228 850,-96 -22,-224 -162,-419 -263,-542 -105,-129 -305,-279 -561,-367 -60,-20 -136,-41 -220,-62zm1123 4536c-198,-323 -428,-712 -682,-1142l-180 -305c210,300 435,762 728,1089 361,402 996,257 961,-109 -25,-253 -183,-474 -297,-613 -115,-141 -332,-306 -610,-405 -50,-78 -104,-164 -160,-255 310,76 619,-72 594,-330 -25,-254 -184,-474 -297,-613 -118,-146 -345,-316 -635,-414 -138,-47 -354,-96 -555,-138 -1030,-1741 -2408,-4033 -3635,-5331l-33 31c1194,1263 2494,3537 3507,5267l-203 -40c-44,-9 -64,20 -31,36 270,224 538,885 921,1312 56,62 118,111 184,149 61,98 118,190 173,275 -240,-64 -571,-128 -763,-166 -1041,-1754 -2382,-3948 -3583,-5219l-34 32c1320,1396 2798,4037 3871,5851 224,379 419,714 591,1003 -109,-22 -210,-42 -286,-57 -44,-9 -64,20 -31,36 270,224 538,885 921,1312 361,402 996,257 960,-109 -25,-254 -183,-475 -297,-614 -118,-145 -345,-316 -635,-414 -117,-40 -290,-81 -462,-119zm188 -5865l-5 -98c-95,-1801 -269,-5120 -56,-6505l46 7c-211,1371 24,4669 118,6464l2 38c75,-66 145,-127 198,-173 30,-27 58,-12 40,14 -109,293 -23,921 -129,1420 -100,470 -654,640 -789,342 -93,-207 -69,-447 -43,-605 27,-165 127,-397 306,-601 74,-84 192,-196 312,-304zm1532 4526c11,-404 17,-888 23,-1424 22,-1830 51,-4257 323,-6174 -152,-473 -308,-937 -471,-1382 -252,1773 -228,4092 -248,5817 -7,567 -17,1072 -33,1477 82,-72 158,-138 216,-188 34,-30 65,-14 45,15 -123,329 -25,1035 -145,1597 -112,528 -735,719 -887,385 -105,-232 -78,-503 -48,-680 30,-185 142,-446 344,-675 84,-96 220,-223 355,-345 17,-417 23,-961 31,-1580 21,-1762 50,-4127 335,-5921 -294,-798 -606,-1531 -934,-2137l52 -28c315,581 618,1268 907,2010 41,-240 87,-469 138,-684l45 11c-57,238 -106,494 -148,764 164,426 324,871 479,1324 54,-347 116,-674 188,-976l49 12c-79,330 -144,694 -197,1081 456,1346 867,2764 1220,4019 222,109 607,295 880,453 -38,-122 -79,-254 -121,-394 -68,-67 -128,-148 -177,-242 -330,-649 -441,-1545 -699,-1908 -35,-29 -1,-59 50,-33l235 115c-676,-2449 -1524,-5658 -2573,-7594l51 -28c1078,1991 2017,5247 2709,7715 232,117 480,248 634,351 322,215 545,498 642,715 94,208 216,530 163,848 -54,324 -479,404 -835,210 40,130 77,252 113,365 307,212 520,485 614,696 93,208 216,530 163,848 -76,460 -901,429 -1212,-181 -252,-495 -376,-1135 -536,-1571l121 433c170,609 325,1160 461,1621 199,102 397,209 527,297 322,215 544,498 642,715 94,208 216,530 163,848 -76,460 -901,429 -1212,-181 -329,-649 -441,-1545 -699,-1908 -35,-29 -1,-59 50,-33 89,44 206,100 332,163 -116,-410 -245,-885 -396,-1421 -384,-1372 -833,-3070 -1344,-4680 -235,1904 -216,4311 -237,6096 -6,473 -7,889 -13,1249 75,-66 144,-126 197,-172 34,-30 65,-14 45,15 -123,329 -25,1035 -145,1597 -112,528 -735,720 -887,384 -105,-232 -78,-503 -48,-680 30,-185 142,-446 344,-675 85,-97 220,-224 357,-347zm-2509 -5027l-39 -236c-273,-1625 -776,-4621 -775,-5881l35 5c-1,1248 531,4230 803,5851l25 153c41,-80 94,-163 160,-242l-3 -60c-69,-1322 -197,-3756 -41,-4772l34 5c-154,1004 13,3428 82,4747 149,-155 400,-372 535,-489 28,-25 55,-12 38,13 -103,276 -21,870 -122,1342 -95,444 -618,604 -745,323 -88,-195 -65,-423 -40,-572 9,-55 26,-118 53,-185zm2358 7554c30,-185 142,-446 344,-675 162,-185 513,-486 691,-641 34,-30 65,-14 45,15 -122,329 -25,1035 -145,1597 -112,528 -735,719 -887,384 -105,-232 -77,-502 -48,-680zm41 882c-118,-145 -345,-316 -635,-414 -233,-79 -687,-166 -919,-212 -44,-9 -63,20 -31,36 270,224 538,885 921,1312 361,402 996,257 961,-109 -25,-253 -183,-474 -297,-613zm444 719c30,-185 142,-446 344,-675 162,-185 513,-486 691,-641 34,-30 65,-14 45,16 -123,329 -26,1035 -145,1597 -112,528 -735,719 -887,385 -105,-232 -77,-503 -48,-680zm75 839c-118,-146 -345,-316 -635,-414 -233,-79 -686,-166 -918,-211 -44,-9 -64,20 -31,35 270,224 538,885 921,1313 361,402 996,257 961,-109 -25,-253 -184,-474 -297,-613zm391 608c30,-185 142,-446 344,-675 163,-185 513,-486 691,-641 34,-30 65,-14 45,15 -123,329 -25,1035 -145,1597 -112,528 -735,719 -887,385 -105,-232 -78,-503 -48,-680zm115 907c-118,-145 -345,-316 -634,-414 -233,-79 -687,-165 -919,-211 -44,-10 -64,20 -31,35 270,224 538,885 921,1312 360,402 996,257 960,-109 -25,-254 -184,-474 -297,-614zm3739 -13049l73 -344c533,-2520 1515,-7164 2319,-8997l61 27c-796,1814 -1697,6474 -2228,8987l-48 238c135,-68 262,-129 356,-175 50,-25 83,4 49,33 -253,356 -363,1237 -686,1874 -305,599 -1115,629 -1190,178 -52,-313 68,-629 160,-833 96,-213 314,-491 631,-702 125,-84 314,-186 505,-285zm-2222 -621l-62 -234c329,253 789,200 842,-118 47,-282 -62,-567 -145,-750 -78,-174 -246,-395 -489,-576l-57 -269c224,154 495,158 612,-47 142,-248 139,-553 126,-754 -14,-210 -111,-512 -312,-790 -13,-18 -27,-36 -42,-56 -91,-1724 -252,-4508 -563,-5689l-42 11c301,1142 418,3828 503,5553 -178,-210 -420,-461 -559,-607 -35,-37 -71,-23 -52,12 54,203 27,519 2,868 -458,-2047 -1020,-4328 -1509,-5442l-54 24c520,1186 1086,3732 1537,5881 -4,158 -1,316 17,466 19,161 81,299 165,407l67 323c-151,-91 -359,-198 -545,-291 -652,-2367 -1467,-5119 -2115,-6411l-60 30c632,1260 1390,3957 2012,6301l-143 -70c-45,-23 -75,4 -44,30 228,321 327,1113 618,1687l3 6 107 409c-186,-96 -377,-188 -503,-250 -45,-23 -74,3 -44,29 228,321 326,1114 618,1688 275,539 1004,567 1072,160 46,-282 -62,-567 -145,-750 -86,-192 -283,-442 -568,-632 -67,-44 -153,-95 -249,-147zm2039 -1198l26 -121c473,-2236 1344,-6356 2057,-7982l54 24c-706,1609 -1497,5724 -1968,7953l-10 47c114,-57 219,-108 299,-147 46,-23 75,4 44,30 -229,323 -329,1120 -622,1697 -276,543 -1010,570 -1078,161 -47,-284 62,-570 145,-755 87,-193 285,-444 571,-636 118,-79 300,-177 481,-270zm268 3939c156,-505 342,-1170 554,-1925 701,-2507 1683,-6014 2820,-8114l51 28c-1125,2078 -2020,5623 -2719,8121 -194,692 -371,1308 -522,1798 124,-62 238,-117 325,-160 51,-26 84,4 50,34 -258,363 -369,1259 -699,1908 -310,610 -1135,640 -1211,181 -53,-319 69,-641 163,-849 98,-216 320,-499 642,-715 135,-90 342,-201 547,-306zm-1300 -4872l29 -302c197,-2079 561,-5911 974,-7454l41 17c-409,1527 -733,5353 -929,7426l-18 195c77,-85 169,-169 275,-244l16 -74c347,-1641 986,-4663 1510,-5856l40 17c-517,1179 -1105,4202 -1451,5838 233,-141 612,-324 815,-424 43,-22 71,4 42,28 -216,305 -310,1058 -587,1603 -261,513 -954,538 -1018,152 -44,-268 59,-538 137,-713 29,-65 71,-136 126,-210zm418 10019c98,-216 320,-499 642,-715 259,-173 787,-427 1056,-559 51,-26 84,4 50,33 -258,363 -369,1259 -699,1908 -310,610 -1135,641 -1211,181 -53,-318 69,-640 163,-848zm-238 1094c-97,-217 -319,-500 -642,-715 -259,-173 -787,-427 -1056,-559 -51,-25 -84,4 -50,33 258,363 369,1259 699,1908 310,610 1135,640 1212,181 53,-319 -70,-640 -163,-848zm308 1026c98,-217 320,-499 642,-715 259,-173 787,-427 1056,-559 51,-26 84,4 50,33 -258,363 -369,1259 -699,1908 -310,610 -1136,640 -1212,181 -52,-319 70,-641 163,-849zm-182 1052c-97,-216 -320,-500 -642,-715 -259,-173 -787,-427 -1055,-559 -51,-26 -84,4 -50,33 257,363 369,1259 698,1908 310,610 1136,641 1212,181 52,-319 -70,-641 -163,-848zm280 873c98,-217 320,-500 642,-715 259,-173 787,-427 1056,-559 51,-26 85,4 50,33 -258,363 -369,1259 -699,1907 -310,610 -1136,641 -1211,181 -53,-319 69,-641 163,-848zm-155 1149c-97,-216 -320,-499 -642,-715 -259,-173 -787,-427 -1056,-559 -51,-26 -84,4 -50,33 257,363 369,1259 699,1908 310,610 1136,641 1211,181 53,-319 -69,-641 -163,-849z"/>
 </g>
</svg>
