<?xml version="1.0" encoding="UTF-8"?>
<!DOCTYPE svg PUBLIC "-//W3C//DTD SVG 1.1//EN" "http://www.w3.org/Graphics/SVG/1.1/DTD/svg11.dtd">
<!-- Creator: CorelDRAW X6 -->
<svg xmlns="http://www.w3.org/2000/svg" xml:space="preserve" width="210mm" height="297mm" version="1.1" style="shape-rendering:geometricPrecision; text-rendering:geometricPrecision; image-rendering:optimizeQuality; fill-rule:evenodd; clip-rule:evenodd"
viewBox="0 0 21000 29700"
 xmlns:xlink="http://www.w3.org/1999/xlink">
 <defs>
  <style type="text/css">
   <![CDATA[
    .fil0 {fill:#666666}
   ]]>
  </style>
 </defs>
 <g id="Слой_x0020_1">
  <metadata id="CorelCorpID_0Corel-Layer"/>
  <path class="fil0" d="M10702 16823c-277,304 -486,897 -999,1893 362,317 514,819 497,901 -45,-71 -5,-19 -78,-111 -117,0 -403,-231 -640,-362 -175,338 -301,574 -335,609 -2,17 -5,34 -7,51 198,98 226,185 246,399 6,66 -63,121 -55,214 9,104 96,247 93,323 -10,232 -15,443 85,551 -265,-51 -337,-658 -422,-1164 -215,1371 -534,1504 -534,3252 -404,69 -709,-895 -887,-1883 -327,117 -393,1019 -576,908 156,-711 354,-1013 529,-1304 -53,-377 -99,-777 -144,-1183 -349,408 -747,859 -826,1052 -151,-393 358,-969 620,-1289 39,-47 95,-148 153,-260 -121,-1148 -510,-3843 -1253,-4813 -599,-1807 -541,-2577 394,-3167 488,-308 690,-124 1513,-386 338,-108 627,-226 619,-425 -9,-252 241,-294 574,-239 112,19 235,-18 306,-125 57,-87 122,-126 191,-131 -113,-349 -150,-617 -394,-887 -291,-322 -821,-341 -1246,-476 -85,269 -215,583 -616,810 -716,405 -1128,-447 -2118,-369 -723,56 -1525,28 -2130,-442 -884,-687 -433,-1253 436,-1342l122 -12c724,-74 2064,324 2542,-166 202,-207 723,-138 947,13l109 73c321,216 745,673 813,1113l0 0c418,212 1053,292 1382,624 101,102 319,307 419,435 -81,-482 -341,-1097 -527,-1501 -242,131 -613,291 -1029,187 -778,-193 -499,-1071 -1251,-1681 -549,-444 -1097,-1001 -1210,-1740 -165,-1078 533,-1176 1207,-657l95 73c562,433 1243,1612 1909,1585 281,-11 604,387 661,644l28 125c75,334 76,863 -107,1225 117,367 458,873 546,1212 206,796 186,556 221,952 41,73 74,122 -8,195 237,-217 407,-242 681,-387 498,-262 645,-359 813,-435l0 0c105,-519 633,-1039 1027,-1278l133 -81c275,-167 898,-221 1126,36 541,609 2155,209 3012,336l145 22c1028,153 1533,850 445,1618 -746,526 -1700,516 -2556,410 -1173,-146 -1709,844 -2537,324 -464,-291 -632,-782 -719,-1107 -624,167 -877,536 -1291,1016 44,124 29,238 -18,329 -39,-6 -62,21 -181,36 -422,56 -1084,15 -1085,11l14 30c10,21 601,51 996,61 147,4 288,-44 320,-49 11,-2 20,-4 26,-7 44,16 93,39 152,80 29,20 193,191 142,394 -17,-9 -33,-16 -44,-20 -63,-21 -79,19 -247,41 -534,71 -1369,19 -1370,14l18 37c12,26 759,64 1259,77 158,4 310,-39 377,-56 78,84 402,362 568,550 436,492 547,346 781,654 484,638 399,1396 -447,2282 -240,251 -1045,1362 -1406,1758zm2126 -7616c231,-105 1739,-226 2062,-219 495,12 942,117 1521,117 288,0 575,0 857,-1 -332,55 -317,129 -726,117 -513,-15 -1030,-57 -1559,-147 -52,-9 -426,46 -485,52 142,44 1230,543 1245,549 -166,22 -468,-260 -940,-310 -56,-6 -133,-71 -190,-77 -84,-10 -149,-75 -236,-85 -472,-56 -1059,-1 -1495,131 -77,23 -215,10 -292,16 39,-98 218,-134 238,-142zm-4762 -672c-150,-97 -1189,-336 -1415,-364 -346,-43 -669,-15 -1072,-75 -201,-30 -401,-59 -597,-89 226,73 208,122 494,156 359,43 724,66 1102,58 37,-1 292,76 333,86 -103,16 -913,252 -924,255 113,32 353,-133 687,-119 39,2 100,-36 140,-34 60,2 111,-37 173,-35 335,9 738,108 1029,245 51,24 149,29 202,41 -17,-72 -139,-116 -151,-124zm1483 -724c-62,-167 -749,-982 -914,-1140 -252,-242 -526,-413 -813,-703 -143,-144 -285,-288 -424,-429 137,194 93,223 301,421 262,249 540,488 847,707 30,22 189,236 215,269 60,395 207,-14 698,911 26,50 102,113 137,154 30,-68 -42,-176 -47,-190zm-747 7486l88 -26c0,0 2215,680 1493,910 -187,60 -1476,-915 -1581,-883zm-403 381l84 -25c0,0 2119,651 1428,870 -179,57 -1412,-875 -1513,-845z"/>
 </g>
</svg>
