<?xml version="1.0" encoding="UTF-8"?>
<!DOCTYPE svg PUBLIC "-//W3C//DTD SVG 1.1//EN" "http://www.w3.org/Graphics/SVG/1.1/DTD/svg11.dtd">
<!-- Creator: CorelDRAW X6 -->
<svg xmlns="http://www.w3.org/2000/svg" xml:space="preserve" width="210mm" height="297mm" version="1.1" style="shape-rendering:geometricPrecision; text-rendering:geometricPrecision; image-rendering:optimizeQuality; fill-rule:evenodd; clip-rule:evenodd"
viewBox="0 0 21000 29700"
 xmlns:xlink="http://www.w3.org/1999/xlink">
 <defs>
  <style type="text/css">
   <![CDATA[
    .fil0 {fill:#666666;fill-rule:nonzero}
   ]]>
  </style>
 </defs>
 <g id="Слой_x0020_1">
  <metadata id="CorelCorpID_0Corel-Layer"/>
  <g id="_395205528">
   <path class="fil0" d="M10172 7607c172,-1339 402,-2884 653,-3635l35 12c-247,739 -435,2277 -583,3613 17,278 149,690 117,1202 -5,76 5,175 -18,263 -75,290 -304,300 -425,161 -132,-151 -172,-360 -190,-500 -19,-146 6,-367 105,-585 64,-141 203,-366 306,-530zm-475 6207c-43,-160 -164,-381 -361,-566 -78,-73 -199,-167 -322,-258l-22 -102c-454,-2146 -1290,-6101 -1975,-7661l-52 23c668,1521 1373,5418 1826,7579l-120 -86c-32,-24 -59,-7 -38,17 136,279 151,821 436,1404 38,78 70,185 132,267 203,270 446,182 512,-14 72,-214 25,-450 -16,-603zm192 10035c86,1077 45,1851 106,2313 149,55 214,31 342,-74 -63,-487 -22,-976 -128,-2335l0 0c25,-64 46,-136 54,-180 18,-98 94,-491 48,-673 -84,121 -179,508 -205,658 -17,97 -54,226 -42,294l0 0c-13,0 -24,0 -35,-1 -13,-82 -35,-173 -46,-235 -26,-150 -121,-537 -205,-658 -46,181 31,574 48,673 8,46 32,135 62,219zm217 -2026c26,-150 121,-537 205,-658 46,181 -31,574 -48,673 -18,101 -98,334 -160,327 -82,-10 -20,-206 3,-341zm-123 59c-26,-150 -121,-537 -205,-658 -46,181 31,574 48,673 18,101 114,414 176,407 82,-10 4,-286 -19,-421zm123 -1536c26,-150 121,-537 205,-658 46,181 -31,574 -48,673 -18,101 -98,334 -160,326 -82,-10 -20,-206 3,-341zm-123 59c-26,-150 -121,-537 -205,-658 -46,181 31,574 48,673 18,101 114,414 176,407 82,-10 4,-286 -19,-421zm123 -1600c26,-150 121,-537 205,-658 46,181 -31,574 -48,673 -18,101 -98,334 -160,326 -82,-10 -20,-206 3,-341zm-123 59c-26,-150 -121,-537 -205,-658 -46,181 31,574 48,673 18,101 114,414 176,407 82,-10 4,-286 -19,-421zm123 -1675c26,-150 121,-537 205,-658 46,181 -31,574 -48,673 -18,101 -98,334 -160,326 -82,-10 -20,-206 3,-341zm-123 59c-26,-150 -121,-537 -205,-658 -46,181 31,574 48,673 18,101 114,414 176,407 82,-10 4,-286 -19,-421zm123 -1696c26,-150 121,-537 205,-658 46,181 -31,574 -48,673 -18,101 -98,334 -160,326 -82,-10 -20,-206 3,-341zm-123 59c-26,-150 -121,-537 -205,-658 -46,181 31,574 48,673 18,101 114,414 176,407 82,-10 4,-286 -19,-421zm123 -1536c26,-150 121,-537 205,-658 46,181 -31,574 -48,673 -18,101 -98,334 -160,326 -82,-10 -20,-206 3,-341zm-123 59c-26,-150 -121,-537 -205,-658 -46,181 31,574 48,673 18,101 114,414 176,407 82,-10 4,-286 -19,-421zm104 -1488c26,-150 121,-537 205,-658 46,181 -31,574 -48,673 -18,101 -98,334 -160,326 -82,-10 -20,-206 3,-341zm-123 59c-26,-150 -121,-537 -205,-658 -46,181 31,574 48,673 18,101 114,414 176,407 82,-10 4,-286 -19,-421zm126 -1471c26,-150 121,-537 205,-658 46,181 -31,574 -48,673 -18,101 -98,334 -160,326 -82,-10 -20,-206 3,-341zm-123 59c-26,-150 -121,-537 -205,-658 -46,181 31,574 48,673 18,101 114,414 176,407 82,-10 4,-286 -19,-421zm139 -1363c26,-150 121,-537 205,-658 46,181 -31,574 -48,673 -18,101 -98,334 -160,326 -82,-10 -20,-206 3,-341zm-123 59c-20,-112 -77,-355 -140,-522 -173,-1454 -469,-3863 -804,-4863l-35 12c348,1040 607,3668 774,5082l1 4c16,132 39,252 47,301 18,101 114,414 176,407 82,-10 4,-286 -19,-421zm381 2358c41,-155 158,-367 348,-545 75,-70 191,-160 309,-248 108,-505 229,-1068 359,-1652 -116,282 -142,784 -405,1323 -37,75 -69,180 -128,259 -197,263 -433,177 -498,-14 -70,-208 -24,-437 16,-587 41,-156 159,-370 351,-550 46,-43 107,-93 174,-146 27,-124 54,-251 82,-380 -17,40 -36,81 -55,122 -34,69 -62,164 -117,236 -179,239 -395,161 -454,-13 -64,-189 -22,-398 14,-535l1 -3c299,-1416 829,-3897 1265,-4889l34 15c-394,897 -807,3062 -1101,4507 36,-45 77,-89 122,-131 126,-118 377,-297 537,-411 373,-1636 812,-3368 1197,-4246l46 20c-486,1108 -995,3635 -1384,5565 107,-79 212,-153 285,-205 13,-10 26,-12 34,-10 440,-1968 981,-4166 1451,-5237l52 23c-592,1348 -1213,4561 -1662,6779 43,-31 82,-59 115,-82 31,-23 57,-7 37,17 -131,269 -145,790 -419,1352l-20 95 -19 -4c-24,56 -50,117 -88,167 -195,260 -430,175 -494,-14 -70,-206 -24,-433 16,-581zm-666 43c-41,-155 -158,-367 -348,-545 -50,-47 -117,-102 -192,-159 -33,-154 -67,-316 -103,-485 10,22 21,45 32,68 37,75 69,180 128,259 197,263 433,177 498,-14 70,-208 24,-437 -16,-587 -20,-77 -60,-169 -117,-263l10 -2 -64 -302c88,-8 160,-72 190,-162 64,-189 22,-398 -14,-535 -38,-142 -145,-337 -320,-501 -37,-35 -85,-75 -138,-117 -296,-1345 -678,-2938 -1006,-3685l-34 15c315,718 643,2249 912,3573 -118,-88 -242,-175 -323,-233 -29,-21 -52,-6 -34,15 121,248 134,727 386,1244 34,69 62,164 117,236 44,59 90,98 135,122l8 39 18 85c-24,-27 -50,-53 -78,-79 -132,-123 -388,-308 -564,-433 -398,-1795 -900,-3863 -1333,-4850l-46 20c563,1282 1155,4465 1558,6424 -95,-69 -186,-133 -252,-180 -31,-23 -57,-7 -37,17 131,269 145,791 420,1353 36,75 68,178 127,257 195,260 430,175 494,-14 70,-206 24,-433 -16,-581zm673 10761c47,-176 180,-418 397,-621 175,-163 543,-422 730,-555 35,-26 64,-8 42,19 -150,307 -166,902 -479,1543 -42,85 -77,203 -145,293 -223,297 -490,200 -563,-16 -80,-235 -27,-494 18,-663zm-680 43c-47,-176 -180,-418 -397,-621 -175,-163 -543,-422 -730,-555 -35,-26 -64,-8 -42,19 150,307 166,902 479,1543 42,85 77,203 145,293 223,297 490,200 563,-16 80,-235 27,-494 -18,-663zm680 -1723c47,-176 180,-418 397,-621 175,-163 543,-422 730,-555 35,-26 64,-7 42,19 -150,307 -166,902 -479,1543 -42,85 -77,203 -145,293 -223,297 -490,200 -563,-16 -80,-235 -27,-494 18,-663zm-680 43c-47,-176 -180,-418 -397,-621 -175,-163 -543,-422 -730,-555 -35,-26 -64,-8 -42,19 150,307 166,902 479,1543 42,85 77,203 145,293 223,297 490,200 563,-16 80,-235 27,-494 -18,-663zm680 -1607c47,-176 180,-418 397,-621 175,-163 543,-422 730,-555 35,-26 64,-8 42,19 -150,307 -166,902 -479,1543 -42,85 -77,203 -145,293 -223,297 -490,200 -563,-16 -80,-235 -27,-494 18,-663zm-680 43c-47,-176 -180,-418 -397,-621 -36,-34 -81,-72 -131,-113l-30 -97c4,6 9,12 13,18 223,297 490,200 563,-16 80,-235 27,-494 -18,-663 -47,-176 -180,-418 -397,-621 -165,-154 -501,-392 -696,-531 -89,-311 -174,-611 -247,-871 -753,-2692 -1807,-6458 -3029,-8714l-55 30c1209,2232 2121,6060 2872,8742 203,724 500,1752 724,2494 -113,-83 -222,-159 -299,-215 -35,-26 -64,-7 -42,19 150,307 166,902 479,1543 42,85 77,203 145,293 223,297 490,200 563,-16 80,-235 27,-494 -18,-663zm680 -1534c47,-176 180,-418 397,-621 121,-113 334,-271 515,-402 216,-686 567,-1886 810,-2756 753,-2692 1807,-6458 3029,-8714l55 30c-1209,2232 -2121,6060 -2872,8742 -286,1023 -721,2502 -913,3074 -66,295 -148,656 -331,1032 -42,85 -77,203 -145,293 -223,297 -490,200 -563,-16 -80,-235 -27,-494 18,-663zm0 -1666c47,-176 180,-418 397,-621 175,-163 543,-422 730,-555 35,-26 64,-8 42,19 -150,307 -166,902 -479,1543 -42,85 -77,203 -145,293 -223,297 -490,200 -563,-16 -80,-235 -27,-494 18,-663zm-680 43c-47,-176 -180,-418 -397,-621 -58,-55 -138,-120 -226,-188 -154,-490 -341,-1156 -555,-1920 -665,-2378 -1597,-5706 -2676,-7698l-48 26c1068,1972 1874,5354 2537,7723 179,641 340,1213 478,1672 -91,-66 -176,-126 -240,-172 -35,-26 -64,-7 -42,19 150,307 166,902 479,1543 42,85 77,203 145,293 223,297 490,200 563,-16 80,-235 27,-494 -18,-663zm678 -1575c45,-170 173,-403 382,-599 83,-78 212,-178 342,-275 80,-283 166,-589 257,-913 665,-2378 1597,-5706 2676,-7698l48 26c-1068,1972 -1874,5354 -2537,7723 -66,236 -129,462 -190,677l107 -76c34,-25 62,-7 40,18 -144,296 -160,868 -461,1486 -40,82 -75,196 -140,282 -214,286 -472,193 -542,-15 -77,-226 -26,-476 17,-638zm-676 43c-45,-170 -173,-403 -382,-598 -168,-157 -523,-406 -703,-535 -34,-25 -62,-7 -40,18 144,296 160,868 461,1486 40,82 75,196 140,282 214,286 472,193 542,-15 77,-226 26,-476 -17,-638zm673 -1489c43,-160 164,-381 361,-566 159,-149 494,-384 664,-505 32,-24 59,-7 38,17 -136,279 -151,821 -436,1404 -38,78 -70,185 -132,267 -203,270 -446,182 -512,-14 -72,-214 -25,-450 16,-603z"/>
   <g>
    <path class="fil0" d="M15801 13363c349,-903 773,-1939 1076,-2419l22 14c-299,472 -692,1510 -1024,2415 -36,197 -14,506 -124,856 -16,52 -27,123 -58,180 -102,189 -263,157 -323,39 -66,-127 -58,-280 -47,-380 12,-105 67,-255 173,-389 69,-87 204,-220 304,-317zm-1393 4240c-2,-119 -49,-293 -155,-456 -42,-64 -110,-150 -180,-235l2 -75c51,-1572 146,-4467 -64,-5671l-40 7c204,1173 29,4006 -26,5588l-69 -80c-18,-22 -40,-15 -29,6 47,218 -35,597 63,1052 13,60 17,141 46,208 95,223 279,203 359,78 87,-136 94,-309 92,-423zm-1583 7018c-125,764 -285,1296 -322,1628 94,64 144,58 251,7 40,-350 152,-683 311,-1648l0 0c29,-41 55,-87 68,-116 29,-65 149,-326 149,-460 -79,70 -211,323 -255,423 -28,65 -76,148 -80,198l0 0c-9,-2 -17,-4 -24,-6 5,-59 5,-126 8,-171 7,-109 8,-395 -30,-493 -63,118 -77,405 -81,476 -2,33 -1,100 6,163zm498 -1373c44,-100 176,-353 255,-423 1,134 -120,394 -149,460 -30,67 -125,216 -167,200 -55,-21 21,-147 61,-237zm-96 20c7,-109 8,-395 -30,-493 -63,118 -77,405 -81,476 -5,73 8,308 53,313 59,7 52,-198 59,-296zm348 -1048c44,-100 176,-353 255,-423 1,134 -120,394 -149,460 -30,67 -125,216 -167,200 -55,-21 21,-147 61,-237zm-96 20c7,-109 8,-395 -30,-493 -63,118 -77,405 -81,476 -5,73 8,308 53,313 59,7 52,-198 59,-296zm359 -1093c44,-100 176,-353 255,-423 1,134 -120,394 -149,460 -30,67 -125,216 -167,200 -55,-21 21,-147 61,-237zm-96 20c7,-109 8,-395 -30,-493 -63,118 -77,405 -81,476 -5,73 8,308 53,313 59,7 52,-198 59,-296zm372 -1145c44,-100 176,-353 255,-423 1,134 -120,394 -149,460 -30,67 -125,216 -167,200 -55,-21 21,-147 61,-237zm-96 20c7,-109 8,-395 -30,-493 -63,118 -77,405 -81,476 -5,73 8,308 53,313 59,7 52,-198 59,-296zm376 -1160c44,-100 176,-353 255,-423 1,134 -120,394 -149,460 -30,67 -125,216 -167,200 -55,-21 21,-147 61,-237zm-96 20c7,-109 8,-395 -30,-493 -63,118 -77,405 -81,476 -5,73 8,308 53,313 59,7 52,-198 59,-296zm348 -1048c44,-100 176,-353 255,-423 1,134 -120,394 -149,460 -30,67 -125,216 -167,200 -55,-21 21,-147 61,-237zm-96 20c7,-109 8,-395 -30,-493 -63,118 -77,405 -81,476 -5,73 8,308 53,313 59,7 52,-198 59,-296zm327 -1018c44,-100 176,-353 255,-423 1,134 -119,394 -149,460 -30,67 -125,216 -167,200 -55,-21 21,-147 61,-237zm-96 20c7,-109 8,-395 -30,-493 -63,118 -77,405 -81,476 -5,73 8,308 53,313 59,7 52,-198 59,-296zm339 -1003c44,-100 176,-353 255,-423 1,134 -120,394 -149,460 -30,67 -125,216 -167,200 -55,-21 21,-147 61,-237zm-96 20c7,-109 8,-395 -30,-493 -63,118 -77,405 -81,476 -5,73 8,308 53,313 59,7 52,-198 59,-296zm330 -925c44,-100 176,-353 255,-423 1,134 -120,394 -149,460 -30,67 -125,216 -167,200 -55,-21 21,-147 61,-237zm-96 20c6,-81 7,-260 -8,-387 129,-1042 335,-2769 273,-3522l-26 2c64,784 -205,2657 -331,3670l0 3c-12,94 -16,182 -19,218 -5,73 8,308 53,313 59,7 52,-198 59,-296zm-138 1707c55,-101 172,-228 336,-320 64,-36 160,-79 257,-120 161,-333 342,-704 533,-1089 -129,176 -233,521 -508,852 -39,46 -78,113 -134,159 -182,149 -332,49 -344,-95 -13,-157 58,-308 111,-406 55,-101 174,-230 339,-323 39,-22 90,-47 146,-72 40,-82 81,-165 122,-250 -19,25 -39,50 -59,75 -35,42 -72,103 -122,145 -166,136 -303,45 -314,-87 -12,-143 53,-281 101,-370l1 -2c451,-935 1244,-2571 1717,-3187l21 16c-427,557 -1086,1993 -1538,2949 33,-25 69,-49 107,-71 108,-61 313,-142 444,-194 539,-1075 1141,-2205 1560,-2751l29 22c-528,688 -1314,2360 -1915,3637 88,-36 174,-70 234,-94 11,-5 20,-4 25,-2 643,-1294 1396,-2732 1906,-3397l32 25c-643,837 -1624,2967 -2317,4434 35,-14 67,-27 94,-37 26,-10 40,5 23,18 -137,165 -236,525 -523,870l-30 63 -13 -6c-26,35 -55,73 -90,101 -180,148 -329,49 -341,-94 -13,-155 58,-306 110,-402zm-471 -84c-2,-115 -47,-282 -149,-439 -27,-41 -64,-91 -106,-144 4,-113 7,-231 11,-355 3,17 7,35 11,52 13,59 17,137 45,202 92,217 271,197 349,75 85,-133 92,-300 89,-411 -1,-57 -13,-128 -37,-203l7 0 7 -221c62,9 124,-23 160,-80 77,-121 83,-273 81,-375 -2,-105 -43,-260 -137,-404 -20,-30 -46,-66 -76,-105 24,-987 31,-2161 -70,-2737l-26 5c96,554 63,1675 24,2643 -67,-82 -138,-163 -185,-217 -16,-19 -35,-13 -26,5 42,193 -31,529 56,932 12,54 15,125 41,185 21,48 46,84 73,108l-1 29 -2 62c-12,-23 -26,-46 -41,-68 -71,-108 -218,-281 -318,-398 30,-1318 35,-2843 -98,-3604l-36 6c172,989 40,3305 -15,4738 -54,-65 -107,-125 -144,-168 -18,-21 -38,-14 -28,5 45,210 -34,575 61,1014 13,58 17,136 44,201 91,215 269,196 346,75 84,-132 91,-297 89,-407zm-1373 7606c63,-115 197,-260 383,-365 150,-84 450,-201 603,-261 29,-12 46,6 26,20 -157,188 -270,599 -597,992 -44,52 -89,128 -151,179 -206,169 -375,55 -389,-107 -15,-177 66,-348 126,-458zm-481 -87c-2,-131 -54,-322 -170,-500 -94,-144 -305,-386 -413,-511 -20,-24 -44,-16 -32,6 52,239 -39,656 69,1156 14,66 19,155 51,229 104,245 307,223 395,85 96,-150 103,-339 101,-464zm768 -1083c63,-115 197,-260 383,-365 150,-84 450,-201 603,-261 29,-12 46,6 26,20 -157,188 -270,599 -597,992 -44,52 -89,128 -151,179 -206,169 -375,55 -389,-107 -15,-177 66,-348 126,-458zm-481 -87c-2,-131 -54,-322 -170,-500 -94,-144 -306,-386 -413,-511 -20,-24 -44,-16 -32,6 52,239 -39,656 69,1156 14,66 19,155 51,229 104,245 307,223 395,85 96,-150 103,-339 101,-464zm749 -1002c63,-115 197,-260 383,-365 150,-84 450,-201 603,-261 29,-12 46,6 26,20 -157,188 -270,599 -597,992 -44,52 -89,128 -151,179 -206,169 -375,55 -389,-107 -15,-177 66,-348 126,-458zm-481 -87c-2,-131 -54,-322 -170,-500 -20,-30 -44,-64 -72,-101l-4 -73c2,5 4,10 6,15 104,245 307,223 395,85 96,-150 103,-339 101,-464 -2,-131 -54,-322 -170,-500 -88,-135 -282,-359 -394,-489 -9,-232 -17,-455 -23,-648 -64,-2003 -153,-4805 -617,-6584l-43 11c460,1760 440,4581 503,6577 17,539 48,1305 77,1860 -65,-77 -127,-149 -172,-201 -20,-24 -44,-16 -32,6 52,239 -39,656 69,1156 14,66 19,155 51,229 104,245 307,223 395,85 96,-150 103,-339 101,-464zm736 -952c63,-115 197,-260 383,-365 103,-58 279,-132 428,-192 268,-441 717,-1216 1035,-1779 985,-1745 2363,-4186 3599,-5547l33 30c-1223,1347 -2514,3856 -3495,5594 -374,663 -930,1618 -1162,1984 -97,194 -215,431 -407,662 -44,52 -89,128 -151,179 -206,169 -375,55 -389,-107 -15,-177 66,-348 126,-458zm285 -1160c63,-115 197,-260 383,-365 150,-84 450,-201 603,-261 29,-12 46,6 26,20 -157,188 -270,599 -597,992 -44,52 -89,128 -151,179 -206,169 -375,55 -389,-107 -15,-177 66,-348 126,-458zm-481 -87c-2,-131 -54,-322 -170,-500 -31,-48 -76,-107 -125,-169 -24,-367 -39,-863 -58,-1431 -56,-1769 -135,-4245 -545,-5816l-38 10c406,1555 389,4047 445,5810 15,477 29,903 47,1246 -52,-62 -101,-118 -138,-161 -20,-24 -44,-16 -32,6 52,239 -39,656 69,1156 14,66 19,155 51,229 104,245 307,223 395,85 96,-150 103,-339 101,-464zm742 -980c60,-110 189,-251 369,-351 71,-40 178,-88 285,-133 104,-183 216,-381 335,-591 870,-1541 2088,-3698 3179,-4901l29 27c-1081,1190 -2220,3406 -3087,4942 -86,153 -169,300 -248,439l88 -35c28,-12 44,6 25,20 -151,181 -260,577 -575,956 -42,50 -85,123 -145,173 -198,162 -361,53 -375,-103 -15,-171 63,-336 121,-441zm-478 -86c-2,-126 -52,-310 -164,-482 -90,-138 -294,-372 -398,-492 -20,-23 -42,-16 -31,6 50,231 -37,632 67,1113 14,64 18,149 49,220 100,236 295,215 380,82 92,-144 100,-327 97,-447zm723 -921c57,-104 179,-237 348,-332 136,-76 409,-183 549,-238 26,-11 42,5 24,19 -143,171 -245,545 -544,903 -40,48 -81,117 -137,163 -187,153 -341,50 -354,-98 -14,-161 60,-317 115,-417z"/>
    <path class="fil0" d="M4646 13363c-349,-903 -773,-1939 -1076,-2419l-22 14c298,472 692,1510 1024,2415 36,197 14,506 124,856 16,52 27,123 58,180 102,189 263,157 323,39 66,-127 58,-280 47,-380 -12,-105 -67,-255 -173,-389 -69,-87 -204,-220 -304,-317zm1393 4240c2,-119 49,-293 155,-456 42,-64 110,-150 180,-235l-2 -75c-51,-1572 -146,-4467 64,-5671l40 7c-204,1173 -29,4006 26,5588l69 -80c18,-22 40,-15 29,6 -47,218 35,597 -63,1052 -13,60 -17,141 -46,208 -95,223 -279,203 -359,78 -87,-136 -94,-309 -92,-423zm1583 7018c125,764 285,1296 322,1628 -94,64 -144,58 -251,7 -40,-350 -152,-683 -311,-1648l0 0c-29,-41 -55,-87 -68,-116 -29,-65 -149,-326 -149,-460 79,70 211,323 255,423 28,65 76,148 80,198l0 0c9,-2 17,-4 24,-6 -5,-59 -5,-126 -8,-171 -7,-109 -8,-395 30,-493 63,118 77,405 81,476 2,33 1,100 -6,163zm-498 -1373c-44,-100 -176,-353 -255,-423 -1,134 120,394 149,460 30,67 125,216 167,200 55,-21 -21,-147 -61,-237zm96 20c-7,-109 -8,-395 30,-493 63,118 77,405 81,476 5,73 -8,308 -53,313 -59,7 -52,-198 -59,-296zm-348 -1048c-44,-100 -176,-353 -255,-423 -1,134 120,394 149,460 30,67 125,216 167,200 55,-21 -21,-147 -61,-237zm96 20c-7,-109 -8,-395 30,-493 63,118 77,405 81,476 5,73 -8,308 -53,313 -59,7 -52,-198 -59,-296zm-359 -1093c-44,-100 -176,-353 -255,-423 -1,134 120,394 149,460 30,67 125,216 167,200 55,-21 -21,-147 -61,-237zm96 20c-7,-109 -8,-395 30,-493 63,118 77,405 81,476 5,73 -8,308 -53,313 -59,7 -52,-198 -59,-296zm-372 -1145c-44,-100 -176,-353 -255,-423 -1,134 120,394 149,460 30,67 125,216 167,200 55,-21 -21,-147 -61,-237zm96 20c-7,-109 -8,-395 30,-493 63,118 77,405 81,476 5,73 -8,308 -53,313 -59,7 -52,-198 -59,-296zm-376 -1160c-44,-100 -176,-353 -255,-423 -1,134 120,394 149,460 30,67 125,216 167,200 55,-21 -21,-147 -61,-237zm96 20c-7,-109 -8,-395 30,-493 63,118 77,405 81,476 5,73 -8,308 -53,313 -59,7 -52,-198 -59,-296zm-348 -1048c-44,-100 -176,-353 -255,-423 -1,134 120,394 149,460 30,67 125,216 167,200 55,-21 -21,-147 -61,-237zm96 20c-7,-109 -8,-395 30,-493 63,118 77,405 81,476 5,73 -8,308 -53,313 -59,7 -52,-198 -59,-296zm-327 -1018c-44,-100 -176,-353 -255,-423 -1,134 119,394 149,460 30,67 125,216 167,200 55,-21 -21,-147 -61,-237zm96 20c-7,-109 -8,-395 30,-493 63,118 77,405 81,476 5,73 -8,308 -53,313 -59,7 -52,-198 -59,-296zm-339 -1003c-44,-100 -176,-353 -255,-423 -1,134 120,394 149,460 30,67 125,216 167,200 55,-21 -21,-147 -61,-237zm96 20c-7,-109 -8,-395 30,-493 63,118 77,405 81,476 5,73 -8,308 -53,313 -59,7 -52,-198 -59,-296zm-330 -925c-44,-100 -176,-353 -255,-423 -1,134 120,394 149,460 30,67 125,216 167,200 55,-21 -21,-147 -61,-237zm96 20c-6,-81 -7,-260 8,-387 -129,-1042 -335,-2769 -273,-3522l26 2c-64,784 205,2657 331,3670l0 3c12,94 16,182 19,218 5,73 -8,308 -53,313 -59,7 -52,-198 -59,-296zm138 1707c-55,-101 -172,-228 -336,-320 -64,-36 -160,-79 -257,-120 -161,-333 -342,-704 -533,-1089 129,176 233,521 508,852 39,46 78,113 134,159 182,149 332,49 344,-95 13,-157 -58,-308 -111,-406 -55,-101 -174,-230 -339,-323 -39,-22 -90,-47 -146,-72 -40,-82 -81,-165 -122,-250 19,25 39,50 59,75 35,42 71,103 122,145 166,136 303,45 314,-87 12,-143 -53,-281 -101,-370l-1 -2c-451,-935 -1244,-2571 -1717,-3187l-21 16c427,557 1086,1993 1538,2949 -33,-25 -69,-49 -107,-71 -108,-61 -313,-142 -444,-194 -539,-1075 -1141,-2205 -1560,-2751l-29 22c528,688 1314,2360 1915,3637 -88,-36 -174,-70 -234,-94 -11,-5 -20,-4 -25,-2 -643,-1294 -1396,-2732 -1906,-3397l-32 25c642,837 1624,2967 2317,4434 -35,-14 -67,-27 -94,-37 -26,-10 -40,5 -23,18 137,165 236,525 523,870l30 63 13 -6c26,35 55,73 90,101 180,148 329,49 341,-94 13,-155 -58,-306 -110,-402zm471 -84c2,-115 47,-282 149,-439 27,-41 64,-91 106,-144 -4,-113 -7,-231 -11,-355 -3,17 -7,35 -11,52 -13,59 -17,137 -45,202 -92,217 -271,197 -349,75 -85,-133 -92,-300 -89,-411 1,-57 13,-128 37,-203l-7 0 -7 -221c-62,9 -124,-23 -160,-80 -77,-121 -83,-273 -81,-375 2,-105 43,-260 137,-404 20,-30 46,-66 76,-105 -24,-987 -31,-2161 70,-2737l26 5c-97,554 -63,1675 -24,2643 67,-82 138,-163 185,-217 16,-19 35,-13 26,5 -42,193 31,529 -56,932 -12,54 -15,125 -41,185 -21,48 -46,84 -73,108l1 29 2 62c12,-23 26,-46 41,-68 71,-108 218,-281 318,-398 -30,-1318 -35,-2843 98,-3604l36 6c-172,989 -40,3305 15,4738 54,-65 107,-125 144,-168 18,-21 38,-14 28,5 -45,210 34,575 -61,1014 -13,58 -17,136 -44,201 -91,215 -269,196 -346,75 -84,-132 -91,-297 -89,-407zm1373 7606c-63,-115 -197,-260 -383,-365 -150,-84 -450,-201 -603,-261 -29,-12 -46,6 -26,20 157,188 270,599 597,992 44,52 89,128 151,179 206,169 375,55 389,-107 15,-177 -66,-348 -126,-458zm481 -87c2,-131 54,-322 170,-500 94,-144 305,-386 413,-511 20,-24 44,-16 32,6 -52,239 39,656 -69,1156 -14,66 -19,155 -51,229 -104,245 -307,223 -395,85 -96,-150 -103,-339 -101,-464zm-768 -1083c-63,-115 -197,-260 -383,-365 -150,-84 -450,-201 -603,-261 -29,-12 -46,6 -26,20 157,188 270,599 597,992 44,52 89,128 151,179 206,169 375,55 389,-107 15,-177 -66,-348 -126,-458zm481 -87c2,-131 54,-322 170,-500 94,-144 306,-386 413,-511 20,-24 44,-16 32,6 -52,239 39,656 -69,1156 -14,66 -19,155 -51,229 -104,245 -307,223 -395,85 -96,-150 -103,-339 -101,-464zm-749 -1002c-63,-115 -197,-260 -383,-365 -150,-84 -450,-201 -603,-261 -29,-12 -46,6 -26,20 157,188 270,599 597,992 44,52 89,128 151,179 206,169 375,55 389,-107 15,-177 -66,-348 -126,-458zm481 -87c2,-131 54,-322 170,-500 20,-30 44,-64 72,-101l4 -73c-2,5 -4,10 -6,15 -104,245 -307,223 -395,85 -96,-150 -103,-339 -101,-464 2,-131 54,-322 170,-500 88,-135 282,-359 394,-489 9,-232 17,-455 23,-648 64,-2003 153,-4805 617,-6584l43 11c-460,1760 -440,4581 -503,6577 -17,539 -48,1305 -77,1860 65,-77 127,-149 172,-201 20,-24 44,-16 32,6 -52,239 39,656 -69,1156 -14,66 -19,155 -51,229 -104,245 -307,223 -395,85 -96,-150 -103,-339 -101,-464zm-736 -952c-63,-115 -197,-260 -383,-365 -103,-58 -279,-132 -428,-192 -268,-441 -717,-1216 -1035,-1779 -985,-1745 -2363,-4186 -3599,-5547l-33 30c1223,1347 2514,3856 3495,5594 374,663 930,1618 1162,1984 97,194 215,431 407,662 44,52 89,128 151,179 206,169 375,55 389,-107 15,-177 -66,-348 -126,-458zm-285 -1160c-63,-115 -197,-260 -383,-365 -150,-84 -450,-201 -603,-261 -29,-12 -46,6 -26,20 157,188 270,599 597,992 43,52 89,128 151,179 206,169 375,55 389,-107 15,-177 -66,-348 -126,-458zm481 -87c2,-131 54,-322 170,-500 31,-48 76,-107 125,-169 24,-367 39,-863 58,-1431 56,-1769 135,-4245 545,-5816l38 10c-406,1555 -388,4047 -445,5810 -15,477 -29,903 -47,1246 52,-62 101,-118 138,-161 20,-24 44,-16 32,6 -52,239 39,656 -69,1156 -14,66 -19,155 -51,229 -104,245 -307,223 -395,85 -96,-150 -103,-339 -101,-464zm-742 -980c-60,-110 -189,-251 -369,-351 -71,-40 -178,-88 -285,-133 -104,-183 -216,-381 -335,-591 -870,-1541 -2088,-3698 -3179,-4901l-29 27c1081,1190 2220,3406 3087,4942 86,153 169,300 248,439l-88 -35c-28,-12 -44,6 -25,20 151,181 260,577 575,956 42,50 85,123 145,173 198,162 361,53 375,-103 15,-171 -63,-336 -121,-441zm478 -86c2,-126 52,-310 164,-482 90,-138 294,-372 398,-492 20,-23 42,-16 31,6 -50,231 37,632 -67,1113 -14,64 -18,149 -49,220 -100,236 -295,215 -380,82 -92,-144 -100,-327 -97,-447zm-723 -921c-57,-104 -179,-237 -348,-332 -136,-76 -409,-183 -549,-238 -26,-11 -42,5 -24,19 143,171 245,545 544,903 40,48 81,117 137,163 187,153 341,50 354,-98 14,-161 -60,-317 -115,-417z"/>
   </g>
  </g>
 </g>
</svg>
