<?xml version="1.0" encoding="UTF-8"?>
<!DOCTYPE svg PUBLIC "-//W3C//DTD SVG 1.1//EN" "http://www.w3.org/Graphics/SVG/1.1/DTD/svg11.dtd">
<!-- Creator: CorelDRAW X6 -->
<svg xmlns="http://www.w3.org/2000/svg" xml:space="preserve" width="210mm" height="297mm" version="1.1" style="shape-rendering:geometricPrecision; text-rendering:geometricPrecision; image-rendering:optimizeQuality; fill-rule:evenodd; clip-rule:evenodd"
viewBox="0 0 21000 29700"
 xmlns:xlink="http://www.w3.org/1999/xlink">
 <defs>
  <style type="text/css">
   <![CDATA[
    .fil0 {fill:#666666}
   ]]>
  </style>
 </defs>
 <g id="Слой_x0020_1">
  <metadata id="CorelCorpID_0Corel-Layer"/>
  <g id="_395224752">
   <rect class="fil0" x="9234" y="16245" width="2515" height="1467" rx="6288" ry="6288"/>
   <rect class="fil0" x="9172" y="14209" width="2515" height="1467" rx="6288" ry="6288"/>
   <rect class="fil0" x="12023" y="14151" width="2280" height="1467" rx="5701" ry="6288"/>
   <rect class="fil0" x="6649" y="14128" width="2280" height="1467" rx="5701" ry="6288"/>
   <rect class="fil0" x="6486" y="16105" width="2280" height="1467" rx="5701" ry="6288"/>
   <rect class="fil0" x="12011" y="16233" width="2280" height="1467" rx="5701" ry="6288"/>
   <rect class="fil0" x="9313" y="18082" width="2280" height="1467" rx="5701" ry="6288"/>
   <rect class="fil0" x="7138" y="18001" width="1885" height="1467" rx="4712" ry="6288"/>
   <rect class="fil0" x="11919" y="17978" width="1885" height="1467" rx="4712" ry="6288"/>
   <rect class="fil0" x="9325" y="12232" width="2351" height="1467" rx="5878" ry="6288"/>
   <rect class="fil0" x="6806" y="12127" width="2078" height="1467" rx="5195" ry="6288"/>
   <rect class="fil0" x="12052" y="12173" width="2078" height="1467" rx="5195" ry="6288"/>
   <rect class="fil0" x="9208" y="10289" width="2351" height="1467" rx="5878" ry="6288"/>
   <rect class="fil0" x="11959" y="10347" width="1855" height="1467" rx="4637" ry="6288"/>
   <rect class="fil0" x="6853" y="10336" width="1855" height="1467" rx="4637" ry="6288"/>
   <rect class="fil0" x="9301" y="8557" width="2070" height="1385" rx="5175" ry="5934"/>
   <rect class="fil0" x="7201" y="8487" width="1797" height="1385" rx="4494" ry="5934"/>
   <rect class="fil0" x="11691" y="8429" width="1797" height="1385" rx="4494" ry="5934"/>
   <rect class="fil0" x="9418" y="6905" width="1878" height="1385" rx="4695" ry="5934"/>
   <rect class="fil0" x="7597" y="6789" width="1559" height="1385" rx="3897" ry="5934"/>
   <rect class="fil0" x="11645" y="6824" width="1559" height="1385" rx="3897" ry="5934"/>
   <rect class="fil0" x="9592" y="5277" width="1610" height="1385" rx="4026" ry="5934"/>
   <rect class="fil0" x="7957" y="5219" width="1419" height="1385" rx="3548" ry="5934"/>
   <rect class="fil0" x="11482" y="5242" width="1419" height="1385" rx="3548" ry="5934"/>
   <rect class="fil0" x="9743" y="3924" width="1303" height="1121" rx="3258" ry="4802"/>
   <rect class="fil0" x="8341" y="3904" width="1124" height="966" rx="2809" ry="4140"/>
   <rect class="fil0" x="11389" y="3939" width="1124" height="966" rx="2809" ry="4140"/>
   <rect class="fil0" x="9070" y="2875" width="1015" height="873" rx="2538" ry="3741"/>
   <rect class="fil0" x="10664" y="2863" width="1015" height="873" rx="2538" ry="3741"/>
   <rect class="fil0" x="9884" y="2078" width="873" height="751" rx="2183" ry="3217"/>
   <path class="fil0" d="M6037 16514c-22,-62 -18,-141 -66,-185 -461,-434 -720,-1858 -907,-3924 -135,-1498 289,-1791 -295,-4866 665,1484 1613,2737 1547,3501 -125,1444 -349,2919 -349,4311 0,165 -45,1068 70,1164z"/>
   <path class="fil0" d="M13923 9465c57,-695 367,-769 871,-2255 -15,419 -54,1208 42,2026 191,1639 549,3585 103,4238 -124,-507 -446,-2756 -1016,-4009z"/>
   <path class="fil0" d="M9467 21612c333,-1161 2202,-4067 3242,-4520 1080,-471 1877,-990 2620,-1839 944,-1077 1485,-3279 2256,-4261 198,506 -656,5261 -1102,6100 -503,946 -490,2581 -643,3609 -277,1867 -702,3491 -1901,4208 -480,287 -1229,313 -1688,425 -314,77 -379,151 -375,436 5,389 -609,595 -1123,598 -573,3 -1188,-4 -1355,-538 -26,-83 -41,-178 -44,-289 -219,-171 -564,-142 -888,-170 -1603,-140 -2629,-1863 -3097,-3402 -188,-619 -958,-2359 -1190,-3295 -689,-2784 -1904,-3742 -2436,-7060 455,979 811,1464 1276,2284 665,1174 2387,2380 3063,3777 195,403 3423,3701 3383,3935z"/>
  </g>
 </g>
</svg>
