<?xml version="1.0" encoding="UTF-8"?>
<!DOCTYPE svg PUBLIC "-//W3C//DTD SVG 1.1//EN" "http://www.w3.org/Graphics/SVG/1.1/DTD/svg11.dtd">
<!-- Creator: CorelDRAW X6 -->
<svg xmlns="http://www.w3.org/2000/svg" xml:space="preserve" width="210mm" height="297mm" version="1.1" style="shape-rendering:geometricPrecision; text-rendering:geometricPrecision; image-rendering:optimizeQuality; fill-rule:evenodd; clip-rule:evenodd"
viewBox="0 0 21000 29700"
 xmlns:xlink="http://www.w3.org/1999/xlink">
 <defs>
  <style type="text/css">
   <![CDATA[
    .fil0 {fill:#666666}
   ]]>
  </style>
 </defs>
 <g id="Слой_x0020_1">
  <metadata id="CorelCorpID_0Corel-Layer"/>
  <path class="fil0" d="M13766 8348l5 -390c17,-1236 1222,-1949 2366,-2507 197,1004 178,3588 -1302,3667 -67,-37 -227,-229 -426,-372 176,-367 739,-1519 1022,-1942 -429,502 -1026,1593 -1183,1845 -240,-175 -483,-294 -483,-301zm-273 -35c142,77 277,159 406,244l-196 60c-291,-134 -584,-266 -878,-394 95,-32 190,-63 285,-94 130,55 258,116 384,183zm-161 422c-205,67 -413,137 -623,211 -278,-131 -560,-259 -842,-384 198,-73 395,-144 590,-213 293,125 585,254 875,385zm-974 336c-228,83 -457,168 -688,257 -281,-124 -564,-245 -846,-362 232,-94 463,-185 693,-273 282,123 563,248 841,377zm-1032 392c-280,111 -562,226 -843,346 -283,-117 -565,-230 -846,-339 280,-124 562,-244 843,-361 281,115 564,233 845,355zm-1179 490c-224,97 -447,196 -669,297 -285,-111 -568,-218 -848,-319 222,-105 446,-209 672,-311 280,106 563,218 846,333zm-1000 449c-146,68 -290,136 -434,205 -79,38 -157,75 -235,113 -288,-104 -573,-203 -853,-296 222,-113 447,-224 674,-335 280,99 563,203 849,312zm-995 479c-232,115 -460,232 -685,350 -288,-98 -572,-190 -849,-274 222,-122 449,-243 681,-364 280,90 565,186 854,288zm-1004 519c-272,146 -537,293 -795,440 -287,-89 -568,-172 -841,-246 252,-153 515,-307 787,-460 276,81 560,170 849,266zm-1102 619c-235,138 -461,276 -679,414 -165,-46 -328,-89 -487,-129 33,-131 72,-260 115,-387 69,-44 139,-89 210,-134 272,70 552,149 840,235zm-974 604c-101,66 -199,132 -295,197 13,-88 28,-175 45,-262 82,21 165,42 249,64zm9098 -3874c88,68 172,137 253,209l-206 -99 -160 -76 112 -33zm222 484c-219,63 -443,131 -670,204 -222,-112 -447,-223 -675,-332 216,-73 429,-143 638,-209 140,65 280,131 419,198 96,46 192,92 287,139zm-1024 319c-226,75 -454,154 -685,237 -223,-106 -448,-209 -675,-311 231,-87 460,-171 687,-251l204 97c157,75 314,151 468,228zm-1031 364c-280,104 -562,213 -845,326 -223,-99 -447,-197 -671,-292 282,-117 563,-231 843,-339 225,100 450,202 673,306zm-1183 462c-223,91 -446,185 -668,281 -223,-94 -447,-186 -669,-275 222,-99 445,-197 668,-292 223,93 447,189 669,287zm-1000 425c-223,98 -445,198 -666,300 -224,-89 -448,-175 -670,-258l7 -3c218,-105 439,-208 660,-309 222,87 445,178 668,270zm-993 453l-217 103c-160,76 -318,153 -475,231 -223,-84 -444,-164 -663,-242 226,-116 455,-231 687,-345 221,81 444,165 669,252zm-1011 494c-273,138 -541,278 -803,419 -221,-77 -440,-152 -656,-222 258,-145 524,-290 796,-433 218,75 439,154 662,236zm-1113 588c-235,130 -465,260 -688,391 -219,-71 -434,-137 -646,-200 218,-135 446,-271 680,-406 215,68 433,140 654,215zm-988 569c-234,141 -459,282 -674,422 -210,-64 -417,-123 -619,-178 205,-143 422,-289 651,-435 210,60 424,124 642,192zm-958 609c-125,84 -246,168 -363,252 -5,-120 -6,-238 -3,-356 120,33 242,68 366,104zm9865 -4001c86,106 166,215 241,327 -152,39 -306,80 -463,124 -222,-121 -450,-241 -680,-360 234,-72 463,-139 687,-201l216 109zm-581 555c-224,67 -452,138 -683,214 -223,-113 -449,-225 -677,-335 231,-81 459,-158 683,-230 229,116 455,233 677,351zm-1033 331c-280,96 -563,197 -850,303 -221,-106 -445,-210 -670,-313 284,-111 566,-218 845,-319l95 45c195,93 388,188 579,283zm-1190 432c-222,85 -445,173 -668,263 -221,-100 -443,-198 -666,-295 222,-94 445,-186 667,-275 224,101 447,203 668,307zm-1002 400c-221,92 -443,186 -664,282 -221,-95 -443,-187 -664,-277 220,-100 442,-198 664,-295 222,94 444,191 665,289zm-992 427c-234,104 -468,211 -699,319 -219,-90 -439,-177 -657,-261l254 -123c146,-70 292,-139 439,-207 221,88 442,179 663,272zm-1020 471l-21 10c-267,128 -531,258 -791,389 -217,-84 -433,-164 -648,-242 263,-139 531,-277 804,-413 217,82 436,168 655,256zm-1124 559c-236,122 -469,246 -696,370 -215,-77 -428,-152 -639,-223 223,-128 454,-256 689,-384 213,76 429,155 645,236zm-1000 539c-239,134 -473,269 -698,404 -208,-71 -414,-139 -617,-204 217,-138 444,-277 680,-416 209,69 421,141 635,216zm-990 580c-231,142 -452,284 -663,424 -196,-64 -389,-126 -580,-184 198,-144 409,-289 632,-436 201,62 404,127 610,196zm-937 610c-89,61 -175,123 -260,184 -18,-92 -34,-185 -48,-280 102,31 204,64 307,97zm10255 -4345c64,109 124,221 178,334 -150,-87 -303,-174 -459,-261 95,-25 188,-49 281,-73zm33 550c-219,59 -444,123 -672,192 -223,-122 -451,-244 -683,-364 232,-73 460,-142 683,-206 230,126 455,252 673,378zm-1021 300c-277,88 -560,182 -846,283 -226,-116 -456,-231 -689,-345 287,-104 571,-203 850,-296 232,119 461,238 684,358zm-1185 403c-219,79 -440,162 -662,248l-210 -102c-161,-77 -322,-153 -485,-228 223,-89 446,-175 667,-258 233,112 463,226 690,340zm-995 377c-218,86 -437,175 -656,267 -233,-107 -467,-212 -702,-315 221,-95 442,-187 662,-277 234,107 466,215 696,325zm-984 405c-234,100 -467,202 -700,306 -234,-103 -468,-204 -703,-302 232,-107 466,-212 700,-315 235,101 470,205 703,310zm-1021 451c-217,100 -433,201 -647,303l-165 79c-235,-98 -470,-193 -704,-286 190,-95 382,-189 576,-281l237 -112c234,96 469,196 703,297zm-1125 536c-235,116 -467,234 -695,353 -236,-93 -471,-183 -705,-270 228,-122 460,-244 696,-364 234,91 468,185 704,281zm-1001 514c-242,129 -479,259 -709,389 -234,-89 -467,-174 -698,-255 227,-133 462,-266 703,-399 233,85 468,173 704,265zm-1004 557c-237,137 -466,274 -686,411 -229,-84 -456,-164 -681,-241 214,-139 438,-279 671,-420 230,79 462,163 696,250zm-966 587c-182,116 -357,232 -524,347 -223,-78 -443,-153 -660,-224 160,-118 330,-237 508,-358 223,74 448,153 676,235zm-787 532c-77,56 -153,111 -227,166 -33,-89 -63,-180 -91,-273 105,35 211,71 318,108zm10406 -4476c77,205 140,414 190,625l-69 18c-254,-154 -518,-308 -791,-461 229,-66 452,-127 670,-183l0 0zm-227 739c-273,78 -554,163 -840,255 -260,-145 -526,-290 -799,-434 287,-98 570,-190 846,-275 273,151 538,302 793,453zm-1177 367c-216,73 -435,149 -656,228 -264,-139 -533,-277 -807,-413 222,-84 443,-165 662,-242 273,141 541,284 801,427zm-987 350c-215,80 -431,162 -648,248 -176,-87 -353,-174 -532,-260 -94,-45 -188,-90 -283,-134 219,-90 437,-177 655,-261 274,134 543,270 808,407zm-975 378c-234,94 -467,191 -701,291 -269,-128 -541,-254 -815,-377 233,-103 467,-204 701,-302 167,77 333,155 498,234 106,51 212,102 318,154zm-1021 429c-272,118 -544,240 -813,364 -270,-122 -543,-242 -815,-359 268,-128 540,-254 812,-377 274,121 546,246 815,372zm-1126 510l-253 120c-148,71 -295,143 -442,215 -272,-117 -544,-231 -816,-341 228,-117 460,-233 695,-348 272,114 544,233 815,354zm-1001 488c-244,123 -485,248 -720,373 -270,-112 -539,-220 -808,-324 232,-129 470,-257 713,-384 271,108 543,220 815,335zm-1018 534c-242,132 -478,264 -707,397 -265,-106 -529,-209 -791,-308 223,-135 454,-271 693,-407 267,102 536,208 805,318zm-992 564c-187,111 -368,222 -543,332 -260,-101 -518,-198 -773,-291 169,-114 346,-228 529,-343 260,96 523,197 787,302zm-816 507c-138,90 -272,179 -401,268 -252,-95 -503,-186 -750,-273 123,-92 251,-185 385,-278 253,90 509,185 766,284zm-661 450c-78,56 -155,112 -229,168 -62,-101 -120,-206 -175,-315 134,48 269,97 404,147zm10271 -4273c22,141 38,283 49,426 -129,35 -260,72 -392,110 -220,-135 -449,-271 -684,-407 286,-90 567,-172 838,-246l189 117zm-679 636c-212,65 -428,134 -647,207 -225,-129 -456,-257 -692,-384 220,-78 438,-152 654,-222 236,133 465,266 686,399zm-978 320c-211,73 -425,150 -639,229 -229,-123 -462,-244 -699,-365 216,-84 432,-164 646,-242 236,125 467,251 693,378zm-966 351c-233,89 -468,180 -703,275 -229,-117 -462,-233 -698,-348 234,-98 468,-194 701,-286 237,119 470,238 699,359zm-1023 406c-271,112 -543,228 -814,346l-192 -93c-167,-80 -335,-159 -504,-237 270,-122 541,-242 812,-359 235,113 468,227 698,343zm-1128 485c-233,104 -465,210 -694,318 -230,-106 -463,-211 -696,-313l240 -116c151,-72 302,-143 454,-214 234,107 466,215 696,325zm-1002 465c-246,118 -490,238 -730,359 -229,-102 -458,-201 -687,-298 237,-124 478,-247 723,-369 232,101 464,204 694,309zm-1030 512c-246,127 -487,255 -724,384 -224,-97 -449,-192 -674,-285 231,-131 468,-263 712,-393 229,96 458,193 686,294zm-1013 544c-190,106 -376,213 -557,319 -220,-92 -440,-182 -660,-270 177,-109 360,-219 547,-328 223,91 447,184 670,279zm-837 486c-142,86 -281,171 -416,256 -215,-88 -430,-173 -644,-256 131,-88 266,-176 405,-265 218,85 436,174 655,264zm-685 429c-153,100 -300,199 -442,297 -184,-82 -369,-162 -554,-241l-21 -30c121,-91 249,-183 381,-276 211,81 423,164 636,249zm9405 -3941l2 101 -111 -71 109 -30zm-1 409c-3,72 -7,143 -12,215 -129,38 -259,78 -391,119 -219,-138 -447,-277 -683,-416 218,-71 433,-138 644,-200 152,94 300,188 442,282zm-727 438c-204,67 -411,137 -620,210 -228,-133 -464,-266 -705,-398 214,-77 426,-152 636,-222 238,137 468,274 689,411zm-942 325c-230,84 -463,171 -696,261 -233,-129 -472,-257 -715,-384 235,-93 470,-183 703,-270 242,131 479,262 709,394zm-1013 385c-268,106 -537,217 -806,330 -238,-124 -479,-247 -725,-369 271,-117 542,-231 813,-341 244,126 484,252 718,380zm-1118 463c-230,99 -459,200 -687,303 -168,-83 -338,-166 -509,-248l-225 -107c230,-106 461,-211 693,-314 246,120 488,242 727,365zm-994 444c-173,80 -346,161 -517,243l-215 104c-243,-116 -488,-230 -735,-343 184,-92 370,-182 557,-272l174 -83c141,65 281,131 420,198 106,51 210,101 315,153zm-1031 494c-248,123 -492,247 -732,373 -242,-113 -486,-223 -731,-331 238,-128 480,-254 727,-380 247,111 492,223 736,338zm-1022 527c-191,102 -379,205 -563,308 -242,-109 -485,-216 -728,-320 182,-105 369,-210 560,-315 245,107 489,216 731,327zm-845 468c-143,82 -284,165 -422,247 -241,-106 -482,-209 -724,-310 136,-84 276,-169 419,-253 243,103 485,208 727,316zm-696 413c-171,105 -336,209 -496,313 -226,-107 -455,-213 -684,-316 147,-100 300,-201 459,-302 240,99 481,201 721,305zm-751 482c-86,58 -171,116 -253,174 -177,-130 -346,-273 -504,-430l77 -55c228,102 455,206 680,311zm9100 -3943l-9 67 -67 -44 76 -23zm-52 350c-20,109 -42,217 -67,323l-220 73c-215,-139 -440,-279 -674,-419 207,-71 412,-139 614,-204 119,76 234,151 346,226zm-600 505c-225,79 -453,161 -682,247 -224,-135 -456,-271 -695,-407 234,-89 466,-174 695,-255 236,139 463,277 681,415zm-992 365c-263,101 -527,206 -792,314 -232,-131 -470,-263 -713,-393 269,-112 538,-220 805,-324 240,134 475,268 701,403zm-1098 441c-225,94 -450,191 -674,290 -238,-128 -482,-255 -729,-380 228,-102 456,-201 685,-299 245,129 484,259 718,389zm-977 424c-244,110 -488,222 -729,336 -242,-124 -488,-248 -737,-369l27 -13c233,-112 469,-222 705,-330 248,124 493,250 733,376zm-1026 478c-248,120 -493,241 -735,364 -200,-100 -402,-199 -607,-297l-132 -63c241,-124 486,-248 735,-370 250,120 496,243 739,366zm-1024 512c-191,99 -379,199 -564,299l-164 -79c-191,-92 -384,-182 -578,-271 185,-102 373,-204 565,-305 104,49 207,98 310,147 144,69 288,139 430,209zm-846 453c-144,80 -285,159 -424,239 -246,-116 -494,-230 -743,-342 139,-81 280,-163 424,-244 250,114 498,229 743,347zm-699 399c-187,110 -369,221 -546,331 -233,-118 -470,-236 -709,-351 165,-105 336,-211 512,-318 249,110 497,223 744,338zm-803 494c-113,73 -223,145 -330,217 -235,-103 -462,-224 -677,-363 97,-67 197,-134 299,-202l24 12c231,110 459,222 684,336zm7874 -3300l-30 92c-43,126 -91,248 -142,368l-104 37c-171,-114 -348,-228 -532,-343 228,-84 455,-164 679,-241l130 86zm-580 609c-257,95 -516,195 -776,298 -178,-109 -361,-219 -549,-328 264,-107 527,-210 788,-308 185,113 365,226 537,338zm-1078 419c-221,89 -441,181 -662,276 -183,-105 -371,-210 -562,-315 223,-97 447,-192 671,-284 189,108 374,216 553,324zm-962 405c-243,106 -486,214 -727,325 -186,-102 -375,-204 -567,-305 241,-113 485,-223 729,-332 192,104 380,208 564,312zm-1022 461c-117,55 -234,110 -350,165 -131,62 -260,126 -389,189 -186,-99 -375,-198 -567,-295 217,-109 436,-216 658,-323l79 -38c193,100 382,200 568,301zm-1027 498c-191,96 -379,193 -565,290 -187,-96 -376,-192 -568,-286 185,-99 374,-198 565,-296 192,97 381,194 568,292zm-848 439c-144,77 -286,154 -426,232 -187,-94 -376,-187 -567,-278 140,-79 282,-158 426,-237 191,94 381,188 568,283zm-702 386c-202,114 -399,229 -591,344 -177,-95 -355,-190 -537,-284 181,-111 369,-223 561,-335l99 47c157,75 313,151 467,228zm-850 501c-62,38 -124,76 -185,115 -225,-52 -445,-118 -660,-197 100,-66 203,-132 308,-198 181,93 360,186 537,280zm6742 -2924c-95,187 -202,366 -316,538l-30 11c-132,-88 -268,-176 -407,-264 253,-99 505,-194 754,-285zm-643 665c-215,85 -432,172 -648,262 -137,-84 -277,-169 -421,-253 219,-92 439,-182 657,-270 141,87 278,175 411,261zm-944 386c-242,102 -483,207 -723,314 -139,-81 -281,-163 -426,-244 241,-109 483,-216 726,-321 144,84 285,167 423,250zm-1015 446c-249,113 -496,229 -741,346 -140,-79 -282,-158 -427,-236l219 -106c173,-83 347,-164 521,-245 145,80 288,161 428,241zm-1027 484c-190,93 -379,187 -566,282 -141,-77 -284,-153 -428,-229 186,-96 375,-192 566,-287 145,78 288,156 428,234zm-847 427c-144,75 -287,150 -427,226 -141,-75 -285,-149 -429,-223 140,-77 283,-153 427,-229 145,75 288,150 429,226zm-704 375c-215,118 -426,236 -631,355 -133,-76 -268,-151 -405,-227 197,-116 399,-232 607,-348 144,73 287,146 429,220zm-1158 359c-71,-9 -141,-19 -212,-30l74 -45 138 75zm5733 -2211c-77,95 -157,187 -240,276l-172 -110c138,-56 275,-111 412,-166zm-425 466c-160,156 -328,303 -504,439 -161,-102 -328,-205 -499,-308 240,-106 481,-209 721,-310 96,60 190,119 282,178zm-728 605c-205,145 -420,277 -641,396 -214,-132 -437,-265 -666,-397 245,-116 492,-230 741,-342 195,115 384,230 566,344zm-914 534c-195,93 -394,177 -597,250 -210,-124 -426,-247 -647,-370 186,-94 375,-187 566,-279 234,133 461,266 679,399zm-926 360c-183,56 -369,104 -556,144 -155,-86 -312,-173 -471,-259 141,-75 284,-149 428,-223 204,112 405,225 600,337zm-960 219c-270,41 -542,66 -813,74 154,-86 310,-173 469,-259 116,62 230,123 343,185zm-5698 -6976c91,-205 194,-403 308,-595 157,39 318,81 481,127 -272,156 -534,313 -784,469l-5 -1zm455 -827l19 -28c204,-121 414,-241 629,-362 223,60 451,126 684,197 -231,123 -458,246 -679,370 -223,-64 -441,-124 -653,-178zm975 -570c221,-120 447,-240 677,-359 225,70 453,145 685,223 -229,113 -454,227 -677,342 -233,-73 -461,-143 -685,-206zm1008 -528c221,-111 445,-222 672,-331 227,78 456,160 687,245 -198,91 -395,184 -590,277l-83 40c-231,-81 -460,-158 -686,-230zm1007 -491c277,-131 557,-258 839,-383 230,86 461,175 694,267 -282,119 -563,242 -843,368 -231,-87 -461,-171 -689,-251zm1181 -533c231,-100 463,-198 695,-294 231,93 463,189 695,288 -231,90 -463,183 -695,279 -233,-94 -465,-185 -695,-273zm1042 -435c182,-73 364,-144 545,-214 242,95 486,193 729,295 -191,69 -383,140 -576,213 -232,-100 -465,-199 -698,-294zm935 -340c326,38 646,106 956,206 -83,28 -167,56 -251,85 -235,-100 -471,-197 -706,-291zm-5610 2207c138,-153 284,-300 437,-440 106,29 212,60 320,92 -231,122 -459,245 -680,368l-77 -20zm672 -645c168,-139 342,-271 523,-394 186,57 376,117 568,180 -227,111 -452,224 -674,338 -141,-43 -279,-85 -417,-124zm809 -579c255,-157 521,-297 794,-420 219,74 441,151 665,232 -282,127 -563,258 -840,390 -209,-71 -415,-138 -618,-202zm1157 -572c274,-106 554,-194 836,-263 168,63 336,127 505,194 -233,98 -466,198 -698,300 -216,-80 -431,-157 -644,-231zm1312 -361c285,-48 571,-77 855,-85l53 20c-177,69 -354,140 -532,213 -126,-50 -252,-100 -377,-148zm2640 10424l281 271c889,859 583,2225 206,3441 -867,-543 -2736,-2328 -1779,-3460 73,-23 322,-8 563,-56 147,379 600,1579 714,2075 -72,-656 -457,-1838 -534,-2126 292,-55 545,-150 550,-146zm580 -382l5 368c17,1166 1155,1836 2234,2361 185,-946 164,-3383 -1232,-3456 -63,35 -213,216 -401,351 166,346 698,1431 966,1829 -405,-473 -969,-1500 -1117,-1738 -226,165 -455,278 -455,284zm1469 -1264l120 348c380,1102 1669,1385 2858,1548 -119,-957 -898,-3265 -2247,-2900 -49,53 -136,271 -272,459 265,277 1109,1143 1488,1438 -532,-323 -1388,-1124 -1603,-1304 -163,227 -346,406 -344,411zm1113 -1646l260 296c823,938 2214,695 3459,375 -506,-900 -2213,-2870 -3401,-1962 -27,73 -24,324 -84,565 375,167 1562,682 2057,821 -658,-104 -1831,-550 -2116,-642 -70,291 -178,542 -174,547zm-6636 3699l-221 322c-701,1018 -130,2297 481,3414 741,-705 2219,-2824 1058,-3745 -77,-9 -317,55 -563,57 -69,401 -276,1666 -289,2175 -60,-658 84,-1892 102,-2189 -297,4 -564,-39 -568,-34zm-4636 -4072l-277 242c-878,767 -2137,370 -3249,-81 580,-771 2405,-2384 3393,-1396 16,71 -18,303 8,533 -368,108 -1531,438 -2006,506 622,-15 1763,-283 2039,-333 28,279 98,524 93,528zm106 644l-390 -27c-1233,-86 -2044,1055 -2696,2149 984,280 3560,476 3763,-992 -31,-70 -209,-245 -335,-456 -380,144 -1575,609 -2020,857 536,-386 1672,-889 1937,-1025 -154,-254 -253,-506 -259,-506zm1036 1812l-380 92c-1202,291 -1629,1624 -1919,2864 1022,-31 3537,-624 3286,-2084 -51,-57 -273,-170 -457,-333 -318,253 -1317,1058 -1666,1428 394,-530 1325,-1354 1536,-1563 -224,-195 -394,-405 -400,-404zm1545 1131l-308 240c-976,758 -818,2150 -575,3399 920,-447 2970,-2020 2141,-3249 -70,-31 -319,-43 -554,-116 -187,361 -767,1505 -934,1986 142,-645 653,-1778 760,-2056 -284,-86 -526,-208 -531,-204zm8599 -7489l386 61c1222,193 2128,-874 2873,-1908 -956,-365 -3507,-784 -3836,662 25,73 187,262 294,483 391,-111 1623,-471 2088,-679 -568,338 -1744,741 -2020,853 132,266 208,526 214,527zm264 2050l323 242c1022,765 2364,228 3542,-356 -696,-794 -2822,-2406 -3820,-1245 -12,78 44,329 36,583 410,87 1708,353 2232,387 -681,35 -1949,-164 -2254,-195 -8,306 -64,580 -58,584zm-11721 -124l-339 144c-1073,455 -2146,-314 -3063,-1089 791,-552 3028,-1517 3659,-270 -7,72 -111,282 -159,509 -383,-12 -1591,-60 -2064,-144 596,180 1764,280 2041,319 -60,274 -70,528 -76,531zm638 -1681l-368 5c-1166,15 -1867,-1103 -2422,-2168 941,-211 3377,-257 3488,1136 -34,65 -210,219 -340,411 -350,-156 -1450,-659 -1856,-915 484,392 1526,927 1768,1069 -159,231 -265,462 -271,463zm1366 -1503l-361 -72c-1144,-226 -1599,-1465 -1922,-2622 964,-12 3357,447 3178,1832 -46,56 -251,171 -417,332 -310,-225 -1283,-944 -1626,-1279 392,483 1302,1223 1509,1411 -203,193 -355,398 -361,397zm1638 -1077l-334 -203c-1056,-643 -1057,-2043 -957,-3312 965,340 3180,1670 2497,2985 -66,39 -312,79 -537,178 -227,-338 -933,-1408 -1153,-1867 214,625 850,1692 988,1956 -273,118 -499,266 -504,263zm1880 -703l-257 -294c-812,-932 -390,-2267 90,-3447 817,616 2526,2554 1476,3600 -75,17 -321,-19 -566,7 -114,-390 -463,-1624 -534,-2128 15,660 298,1871 350,2164 -296,30 -556,103 -560,98zm1915 -30l-113 -374c-358,-1183 575,-2227 1496,-3106 492,897 1256,3365 -131,3889 -75,-15 -285,-149 -519,-225 56,-403 244,-1671 386,-2160 -257,608 -496,1828 -569,2117 -282,-94 -549,-134 -551,-140z"/>
 </g>
</svg>
