<?xml version="1.0" encoding="UTF-8"?>
<!DOCTYPE svg PUBLIC "-//W3C//DTD SVG 1.1//EN" "http://www.w3.org/Graphics/SVG/1.1/DTD/svg11.dtd">
<!-- Creator: CorelDRAW X6 -->
<svg xmlns="http://www.w3.org/2000/svg" xml:space="preserve" width="210mm" height="297mm" version="1.1" style="shape-rendering:geometricPrecision; text-rendering:geometricPrecision; image-rendering:optimizeQuality; fill-rule:evenodd; clip-rule:evenodd"
viewBox="0 0 21000 29700"
 xmlns:xlink="http://www.w3.org/1999/xlink">
 <defs>
  <style type="text/css">
   <![CDATA[
    .fil0 {fill:#87B94B}
   ]]>
  </style>
 </defs>
 <g id="Слой_x0020_1">
  <metadata id="CorelCorpID_0Corel-Layer"/>
  <path class="fil0" d="M14301 7485c-2932,-2776 -7560,-2651 -10336,281 -2777,2932 -2651,7560 281,10336 2523,2390 6303,2630 9077,781l3811 3609 2251 -2377 -3811 -3609c1694,-2871 1250,-6631 -1273,-9021zm-1318 1392c-2163,-2049 -5577,-1956 -7626,207 -2049,2163 -1956,5578 207,7626 2163,2049 5577,1956 7626,-207 2049,-2164 1956,-5578 -207,-7627z"/>
 </g>
</svg>
